# xmcd
# 
# Track frame offsets:
#     150
#     19585
#     41219
#     60500
#     75228
#     95912
#     110871
#     130342
#     153430
#     169417
# 
# Disc length: 2538
# 
# Revision: 0
# Processed by: cddbd v1.5.2PL0 Copyright (c) Steve Scherf et al.
# Submitted via: fre:ac v1.0.31
# 
DISCID=8309e80a
DTITLE=Christmas - Ryan Tilby Joy to the World: A Guitar Christmas
DYEAR=0
DGENRE=Christmas
TTITLE0=Angels We Have Heard on High
TTITLE1=I Heard the Bells on Christmas Day
TTITLE2=O Come, O Come, Emmanuel
TTITLE3=Jesu, Joy of Man's Desiring
TTITLE4=Light through the Trees
TTITLE5=Joy to the World
TTITLE6=O Little Town of Bethlehem
TTITLE7=Away in a Manger
TTITLE8=Go Tell It on the Mountain
TTITLE9=Silent Night
EXTD=
EXTT0=
EXTT1=
EXTT2=
EXTT3=
EXTT4=
EXTT5=
EXTT6=
EXTT7=
EXTT8=
EXTT9=
PLAYORDER=
